<?xml version="1.0" encoding="utf-8"?>
<!-- Generator: Adobe Illustrator 21.1.0, SVG Export Plug-In . SVG Version: 6.00 Build 0)  -->
<svg version="1.1" id="Layer_1" xmlns="http://www.w3.org/2000/svg" xmlns:xlink="http://www.w3.org/1999/xlink" x="0px" y="0px"
	 viewBox="0 0 612 410.9" style="enable-background:new 0 0 612 410.9;" xml:space="preserve">
<style type="text/css">
	.st0{fill:#FFFFFF;}
	.st1{fill:#231F20;}
	.st2{fill:#B4A8C1;}
	.st3{fill:#97D2B3;}
	.st4{fill:#B9D4E0;}
	.st5{fill:#090E17;}
</style>
<g>
	<g>
		<line class="st0" x1="5.8" y1="18.1" x2="54.8" y2="18.1"/>
		<rect x="5.8" y="17.6" class="st1" width="49" height="1"/>
	</g>
	<g>
		<rect x="10.8" y="204.5" class="st1" width="31" height="31"/>
	</g>
	<g>
		<rect x="10.8" y="268.1" class="st1" width="29.4" height="29.4"/>
	</g>
	<g>
		<rect x="170.8" y="144.1" class="st2" width="66.8" height="36"/>
		<path class="st1" d="M238.1,180.6h-67.8v-37h67.8V180.6z M171.3,179.6h65.8v-35h-65.8V179.6z"/>
	</g>
	<g>
		<rect x="111.1" y="125.1" class="st2" width="38.7" height="38.7"/>
		<path class="st1" d="M150.3,164.3h-39.7v-39.7h39.7V164.3z M111.6,163.3h37.7v-37.7h-37.7V163.3z"/>
	</g>
	<g>
		<rect x="111.1" y="191.1" class="st2" width="38.7" height="38.7"/>
		<path class="st1" d="M150.3,230.3h-39.7v-39.7h39.7V230.3z M111.6,229.3h37.7v-37.7h-37.7V229.3z"/>
	</g>
	<g>
		<rect x="214.1" y="86" class="st2" width="38.7" height="38.7"/>
		<path class="st1" d="M253.3,125.1h-39.7V85.5h39.7V125.1z M214.6,124.1h37.7V86.5h-37.7V124.1z"/>
	</g>
	<g>
		<rect x="276.1" y="66.6" class="st2" width="38.7" height="38.7"/>
		<path class="st1" d="M315.3,105.8h-39.7V66.1h39.7V105.8z M276.6,104.8h37.7V67.1h-37.7V104.8z"/>
	</g>
	<g>
		<rect x="340.1" y="66.6" class="st2" width="38.7" height="38.7"/>
		<path class="st1" d="M379.3,105.8h-39.7V66.1h39.7V105.8z M340.6,104.8h37.7V67.1h-37.7V104.8z"/>
	</g>
	<g>
		<rect x="340.1" y="125.1" class="st2" width="38.7" height="38.7"/>
		<path class="st1" d="M379.3,164.3h-39.7v-39.7h39.7V164.3z M340.6,163.3h37.7v-37.7h-37.7V163.3z"/>
	</g>
	<g>
		<rect x="276.1" y="125.1" class="st2" width="38.7" height="38.7"/>
		<path class="st1" d="M315.3,164.3h-39.7v-39.7h39.7V164.3z M276.6,163.3h37.7v-37.7h-37.7V163.3z"/>
	</g>
	<g>
		<rect x="252.8" y="200.7" class="st2" width="38.7" height="38.7"/>
		<path class="st1" d="M292,239.9h-39.7v-39.7H292V239.9z M253.3,238.9H291v-37.7h-37.7V238.9z"/>
	</g>
	<g>
		<rect x="185.5" y="199.6" class="st2" width="38.7" height="38.7"/>
		<path class="st1" d="M224.6,238.8H185v-39.7h39.7V238.8z M186,237.8h37.7v-37.7H186V237.8z"/>
	</g>
	<g>
		<rect x="111.1" y="366.1" class="st3" width="66.8" height="36"/>
		<path class="st1" d="M178.4,402.6h-67.8v-37h67.8V402.6z M111.6,401.6h65.8v-35h-65.8V401.6z"/>
	</g>
	<g>
		<rect x="410.2" y="66.6" class="st4" width="38.7" height="38.7"/>
		<path class="st1" d="M449.4,105.8h-39.7V66.1h39.7V105.8z M410.7,104.8h37.7V67.1h-37.7V104.8z"/>
	</g>
	<g>
		<rect x="410.2" y="125.1" class="st4" width="38.7" height="38.7"/>
		<path class="st1" d="M449.4,164.3h-39.7v-39.7h39.7V164.3z M410.7,163.3h37.7v-37.7h-37.7V163.3z"/>
	</g>
	<g>
		<rect x="410.2" y="204.5" class="st4" width="38.7" height="38.7"/>
		<path class="st1" d="M449.4,243.7h-39.7V204h39.7V243.7z M410.7,242.7h37.7V205h-37.7V242.7z"/>
	</g>
	<g>
		<rect x="448.9" y="175.1" class="st4" width="38.7" height="38.7"/>
		<path class="st1" d="M488.1,214.3h-39.7v-39.7h39.7V214.3z M449.4,213.3h37.7v-37.7h-37.7V213.3z"/>
	</g>
	<g>
		<rect x="448.9" y="93.5" class="st4" width="38.7" height="38.7"/>
		<path class="st1" d="M488.1,132.6h-39.7V93h39.7V132.6z M449.4,131.6h37.7V94h-37.7V131.6z"/>
	</g>
	<g>
		<rect x="537.2" y="58.6" class="st4" width="38.7" height="38.7"/>
		<path class="st1" d="M576.4,97.7h-39.7V58.1h39.7V97.7z M537.7,96.7h37.7V59.1h-37.7V96.7z"/>
	</g>
	<g>
		<rect x="537.2" y="121" class="st4" width="38.7" height="38.7"/>
		<path class="st1" d="M576.4,160.1h-39.7v-39.7h39.7V160.1z M537.7,159.1h37.7v-37.7h-37.7V159.1z"/>
	</g>
	<g>
		<rect x="537.2" y="185.2" class="st4" width="38.7" height="38.7"/>
		<path class="st1" d="M576.4,224.4h-39.7v-39.7h39.7V224.4z M537.7,223.4h37.7v-37.7h-37.7V223.4z"/>
	</g>
	<g>
		<rect x="537.2" y="251.4" class="st4" width="38.7" height="38.7"/>
		<path class="st1" d="M576.4,290.6h-39.7v-39.7h39.7V290.6z M537.7,289.6h37.7v-37.7h-37.7V289.6z"/>
	</g>
	<g>
		<circle class="st2" cx="164.7" cy="86.7" r="34.3"/>
		<path class="st1" d="M164.7,121.5c-19.2,0-34.8-15.6-34.8-34.8S145.5,52,164.7,52s34.8,15.6,34.8,34.8S183.9,121.5,164.7,121.5z
			 M164.7,53C146.1,53,131,68.1,131,86.7s15.1,33.8,33.8,33.8s33.8-15.1,33.8-33.8S183.3,53,164.7,53z"/>
	</g>
	<g>
		<circle class="st3" cx="54.8" cy="363.4" r="34.3"/>
		<path class="st1" d="M54.8,398.2c-19.2,0-34.8-15.6-34.8-34.8s15.6-34.8,34.8-34.8s34.8,15.6,34.8,34.8S73.9,398.2,54.8,398.2z
			 M54.8,329.7c-18.6,0-33.8,15.1-33.8,33.8s15.1,33.8,33.8,33.8s33.8-15.1,33.8-33.8S73.4,329.7,54.8,329.7z"/>
	</g>
	<g>
		<circle class="st4" cx="355.7" cy="223.9" r="34.3"/>
		<path class="st1" d="M355.7,258.6c-19.2,0-34.8-15.6-34.8-34.8s15.6-34.8,34.8-34.8s34.8,15.6,34.8,34.8S374.9,258.6,355.7,258.6z
			 M355.7,190.1c-18.6,0-33.8,15.1-33.8,33.8s15.1,33.8,33.8,33.8s33.8-15.1,33.8-33.8S374.3,190.1,355.7,190.1z"/>
	</g>
	<g>
		<polygon class="st1" points="257.4,403.5 256.4,403.5 256.4,290.6 122.8,290.6 122.8,289.6 257.4,289.6 		"/>
	</g>
	<g>
		<line class="st5" x1="448.9" y1="58.6" x2="448.9" y2="251.4"/>
		<rect x="448.4" y="58.6" class="st1" width="1" height="192.9"/>
	</g>
	<g>
		<line class="st5" x1="519.8" y1="58.6" x2="593.8" y2="58.6"/>
		<rect x="519.8" y="58.1" class="st1" width="74" height="1"/>
	</g>
	<g>
		<line class="st5" x1="519.8" y1="290.1" x2="593.8" y2="290.1"/>
		<rect x="519.8" y="289.6" class="st1" width="74" height="1"/>
	</g>
	<g>
		<polygon class="st1" points="530.3,402.1 529.3,402.1 529.3,335.7 606.8,335.7 606.8,336.7 530.3,336.7 		"/>
	</g>
	<g>
		<rect x="542.8" y="17.6" class="st1" width="58" height="1"/>
	</g>
	<g>
		<path class="st1" d="M464.3,343.9H275.6v-20.3h188.7V343.9z M276.6,342.9h186.7v-18.3H276.6V342.9z"/>
	</g>
	<g>
		<rect x="463.3" y="343.4" class="st1" width="1" height="60"/>
	</g>
	<g>
		<path class="st1" d="M417.7,38.6H191.9v-26h225.8V38.6z M192.9,37.6h223.8v-24H192.9V37.6z"/>
	</g>
	<g>
		<rect x="7" y="66.6" class="st3" width="38.7" height="38.7"/>
		<path class="st1" d="M46.1,105.8H6.5V66.1h39.7V105.8z M7.5,104.8h37.7V67.1H7.5V104.8z"/>
	</g>
	<g>
		<path class="st1" d="M11.9,5.7h1.2v8.4h4v1h-5.3V5.7z"/>
		<path class="st1" d="M22.2,15.1l-0.1-0.9h0c-0.4,0.5-1.1,1-2.1,1c-1.4,0-2.1-1-2.1-1.9c0-1.6,1.5-2.5,4.1-2.5v-0.1
			c0-0.6-0.2-1.6-1.5-1.6c-0.6,0-1.3,0.2-1.8,0.5l-0.3-0.8c0.6-0.4,1.4-0.6,2.2-0.6c2.1,0,2.6,1.4,2.6,2.8v2.5c0,0.6,0,1.2,0.1,1.6
			H22.2z M22,11.7c-1.3,0-2.9,0.2-2.9,1.5c0,0.8,0.5,1.2,1.2,1.2c0.9,0,1.4-0.6,1.6-1.1c0-0.1,0.1-0.3,0.1-0.4V11.7z"/>
		<path class="st1" d="M31,5.2v8.2c0,0.6,0,1.3,0.1,1.8H30l-0.1-1.2h0c-0.4,0.8-1.2,1.3-2.3,1.3c-1.6,0-2.9-1.4-2.9-3.4
			c0-2.3,1.4-3.6,3-3.6c1,0,1.7,0.5,2,1h0v-4H31z M29.8,11.1c0-0.2,0-0.4-0.1-0.5c-0.2-0.8-0.9-1.4-1.8-1.4c-1.3,0-2,1.1-2,2.6
			c0,1.4,0.7,2.5,2,2.5c0.8,0,1.6-0.5,1.8-1.5c0-0.2,0.1-0.3,0.1-0.5V11.1z"/>
		<path class="st1" d="M34.4,6.4c0,0.4-0.3,0.8-0.8,0.8c-0.4,0-0.7-0.3-0.7-0.8c0-0.4,0.3-0.8,0.8-0.8C34.1,5.7,34.4,6,34.4,6.4z
			 M33.1,15.1V8.3h1.2v6.8H33.1z"/>
		<path class="st1" d="M37,11.9c0,1.7,1.1,2.4,2.3,2.4c0.9,0,1.4-0.2,1.9-0.4l0.2,0.9c-0.4,0.2-1.2,0.4-2.3,0.4
			c-2.1,0-3.3-1.4-3.3-3.4s1.2-3.7,3.2-3.7c2.2,0,2.8,1.9,2.8,3.2c0,0.3,0,0.4,0,0.6H37z M40.6,11.1c0-0.8-0.3-2-1.7-2
			c-1.2,0-1.8,1.1-1.9,2H40.6z"/>
		<path class="st1" d="M43.2,13.9c0.4,0.2,1,0.5,1.6,0.5c0.9,0,1.3-0.4,1.3-1c0-0.6-0.4-0.9-1.3-1.2c-1.2-0.4-1.8-1.1-1.8-1.9
			c0-1.1,0.9-2,2.3-2c0.7,0,1.3,0.2,1.7,0.4l-0.3,0.9c-0.3-0.2-0.8-0.4-1.4-0.4c-0.7,0-1.1,0.4-1.1,0.9c0,0.6,0.4,0.8,1.3,1.1
			c1.2,0.4,1.8,1,1.8,2c0,1.2-0.9,2-2.5,2c-0.7,0-1.4-0.2-1.9-0.5L43.2,13.9z"/>
	</g>
	<g>
		<path class="st1" d="M285.2,20.5c0.5-0.1,1.4-0.2,2.2-0.2c1.2,0,2,0.2,2.6,0.7c0.5,0.4,0.8,0.9,0.8,1.7c0,0.9-0.6,1.7-1.6,2.1v0
			c0.9,0.2,1.9,1,1.9,2.4c0,0.8-0.3,1.4-0.8,1.9c-0.7,0.6-1.7,0.9-3.3,0.9c-0.8,0-1.5-0.1-1.9-0.1V20.5z M286.4,24.3h1.1
			c1.3,0,2-0.7,2-1.6c0-1.1-0.8-1.5-2.1-1.5c-0.6,0-0.9,0-1.1,0.1V24.3z M286.4,28.9c0.2,0,0.6,0.1,1,0.1c1.3,0,2.4-0.5,2.4-1.8
			c0-1.3-1.1-1.8-2.4-1.8h-1V28.9z"/>
		<path class="st1" d="M298.4,27.9c0,0.7,0,1.3,0.1,1.8h-1.1l-0.1-1.1h0c-0.3,0.5-1,1.3-2.2,1.3c-1.1,0-2.3-0.6-2.3-3v-4h1.2v3.8
			c0,1.3,0.4,2.2,1.5,2.2c0.8,0,1.4-0.6,1.6-1.1c0.1-0.2,0.1-0.4,0.1-0.6V23h1.2V27.9z"/>
		<path class="st1" d="M304.6,29.8v-5.8h-2.8v5.8h-1.2v-5.8h-1V23h1v-0.2c0-1,0.2-1.8,0.8-2.3c0.4-0.4,1-0.6,1.7-0.6
			c0.4,0,0.8,0.1,1,0.2l-0.3,0.9c-0.2-0.1-0.4-0.2-0.7-0.2c-1,0-1.2,0.8-1.2,1.9V23h2.8v-0.3c0-1,0.2-1.8,0.8-2.4
			c0.5-0.4,1.1-0.6,1.6-0.6c0.4,0,0.8,0.1,1.1,0.2l-0.2,1c-0.2-0.1-0.4-0.2-0.8-0.2c-1,0-1.3,0.9-1.3,2V23h1.6v0.9h-1.6v5.8H304.6z"
			/>
		<path class="st1" d="M309.1,26.6c0,1.7,1.1,2.4,2.3,2.4c0.9,0,1.4-0.2,1.9-0.4l0.2,0.9c-0.4,0.2-1.2,0.4-2.3,0.4
			c-2.1,0-3.3-1.4-3.3-3.4c0-2,1.2-3.7,3.2-3.7c2.2,0,2.8,1.9,2.8,3.2c0,0.3,0,0.4,0,0.6H309.1z M312.7,25.7c0-0.8-0.3-2-1.7-2
			c-1.2,0-1.8,1.1-1.9,2H312.7z"/>
		<path class="st1" d="M316.9,21.1V23h1.8v0.9h-1.8v3.7c0,0.8,0.2,1.3,0.9,1.3c0.3,0,0.6,0,0.7-0.1l0.1,0.9
			c-0.2,0.1-0.6,0.2-1.1,0.2c-0.6,0-1-0.2-1.3-0.5c-0.4-0.4-0.5-1-0.5-1.8v-3.7h-1.1V23h1.1v-1.6L316.9,21.1z"/>
	</g>
	<g>
		<path class="st1" d="M565.8,11c-0.1-1.3-0.2-2.9-0.1-4.1h0c-0.3,1.1-0.7,2.3-1.2,3.6l-1.7,4.6h-0.9l-1.5-4.5
			c-0.4-1.3-0.8-2.5-1.1-3.7h0c0,1.2-0.1,2.8-0.2,4.2l-0.3,4h-1.2l0.7-9.4h1.6l1.6,4.6c0.4,1.2,0.7,2.2,1,3.2h0c0.2-1,0.6-2,1-3.2
			l1.7-4.6h1.6l0.6,9.4H566L565.8,11z"/>
		<path class="st1" d="M569.8,11.9c0,1.7,1.1,2.4,2.3,2.4c0.9,0,1.4-0.2,1.9-0.4l0.2,0.9c-0.4,0.2-1.2,0.4-2.3,0.4
			c-2.1,0-3.3-1.4-3.3-3.4s1.2-3.7,3.2-3.7c2.2,0,2.8,1.9,2.8,3.2c0,0.3,0,0.4,0,0.6H569.8z M573.5,11.1c0-0.8-0.3-2-1.7-2
			c-1.2,0-1.8,1.1-1.9,2H573.5z"/>
		<path class="st1" d="M576.2,10.2c0-0.7,0-1.3-0.1-1.8h1.1l0.1,1.1h0c0.3-0.6,1.1-1.3,2.2-1.3c0.9,0,2.4,0.6,2.4,2.9v4h-1.2v-3.9
			c0-1.1-0.4-2-1.6-2c-0.8,0-1.4,0.6-1.7,1.3c-0.1,0.2-0.1,0.4-0.1,0.6v4.1h-1.2V10.2z"/>
		<path class="st1" d="M585,5.5c-0.3,1.2-0.9,2.7-1.3,3.3l-0.8,0.1c0.3-0.8,0.7-2.3,0.8-3.3L585,5.5z"/>
		<path class="st1" d="M585.2,13.9c0.4,0.2,1,0.5,1.6,0.5c0.9,0,1.3-0.4,1.3-1c0-0.6-0.4-0.9-1.3-1.2c-1.2-0.4-1.8-1.1-1.8-1.9
			c0-1.1,0.9-2,2.3-2c0.7,0,1.3,0.2,1.7,0.4l-0.3,0.9c-0.3-0.2-0.8-0.4-1.4-0.4c-0.7,0-1.1,0.4-1.1,0.9c0,0.6,0.4,0.8,1.3,1.1
			c1.2,0.4,1.8,1,1.8,2c0,1.2-0.9,2-2.5,2c-0.7,0-1.4-0.2-1.9-0.5L585.2,13.9z"/>
	</g>
	<g>
		<path class="st1" d="M336.9,364.1c0.5-0.1,1.4-0.2,2.2-0.2c1.2,0,2,0.2,2.6,0.7c0.5,0.4,0.8,0.9,0.8,1.7c0,0.9-0.6,1.7-1.6,2.1v0
			c0.9,0.2,1.9,1,1.9,2.4c0,0.8-0.3,1.4-0.8,1.9c-0.7,0.6-1.7,0.9-3.3,0.9c-0.8,0-1.5-0.1-1.9-0.1V364.1z M338.1,368h1.1
			c1.3,0,2-0.7,2-1.6c0-1.1-0.8-1.5-2.1-1.5c-0.6,0-0.9,0-1.1,0.1V368z M338.1,372.5c0.2,0,0.6,0.1,1,0.1c1.3,0,2.4-0.5,2.4-1.8
			c0-1.3-1.1-1.8-2.4-1.8h-1V372.5z"/>
		<path class="st1" d="M348.2,373.4l-0.1-0.9h0c-0.4,0.5-1.1,1-2.1,1c-1.4,0-2.1-1-2.1-1.9c0-1.6,1.5-2.5,4.1-2.5V369
			c0-0.6-0.2-1.6-1.5-1.6c-0.6,0-1.3,0.2-1.8,0.5l-0.3-0.8c0.6-0.4,1.4-0.6,2.2-0.6c2.1,0,2.6,1.4,2.6,2.8v2.5c0,0.6,0,1.2,0.1,1.6
			H348.2z M348,370c-1.3,0-2.9,0.2-2.9,1.5c0,0.8,0.5,1.2,1.2,1.2c0.9,0,1.4-0.6,1.6-1.1c0-0.1,0.1-0.3,0.1-0.4V370z"/>
		<path class="st1" d="M351.1,368.8c0-0.8,0-1.5-0.1-2.1h1.1l0,1.3h0.1c0.3-0.9,1.1-1.5,1.9-1.5c0.1,0,0.2,0,0.4,0v1.2
			c-0.1,0-0.3,0-0.4,0c-0.9,0-1.5,0.7-1.7,1.6c0,0.2-0.1,0.4-0.1,0.6v3.6h-1.2V368.8z"/>
		<path class="st1" d="M364.6,373.4c-0.3-0.3-0.5-0.5-0.9-0.9c-0.8,0.8-1.7,1.1-2.8,1.1c-1.8,0-2.9-1.2-2.9-2.6
			c0-1.3,0.8-2.2,1.8-2.8v0c-0.5-0.6-0.8-1.3-0.8-2c0-1.1,0.8-2.3,2.4-2.3c1.2,0,2.1,0.8,2.1,2c0,1-0.6,1.8-2.1,2.5v0
			c0.8,0.9,1.7,2,2.3,2.6c0.4-0.7,0.7-1.6,0.9-2.8h1.1c-0.3,1.5-0.7,2.7-1.4,3.5c0.5,0.5,1,1.1,1.6,1.7H364.6z M363.2,371.8
			c-0.6-0.6-1.6-1.8-2.7-3c-0.5,0.3-1.2,0.9-1.2,1.9c0,1.1,0.8,1.9,1.9,1.9C362,372.7,362.7,372.3,363.2,371.8z M360.3,366.1
			c0,0.7,0.3,1.2,0.7,1.7c1-0.5,1.6-1.1,1.6-1.8c0-0.6-0.3-1.2-1.1-1.2C360.7,364.7,360.3,365.3,360.3,366.1z"/>
		<path class="st1" d="M376.8,373.1c-0.4,0.2-1.3,0.4-2.5,0.4c-2.7,0-4.7-1.7-4.7-4.8c0-3,2-5,4.9-5c1.2,0,1.9,0.3,2.2,0.4l-0.3,1
			c-0.5-0.2-1.1-0.4-1.9-0.4c-2.2,0-3.7,1.4-3.7,3.9c0,2.3,1.3,3.8,3.6,3.8c0.7,0,1.5-0.2,2-0.4L376.8,373.1z"/>
		<path class="st1" d="M381.9,373.4l-0.1-0.9h0c-0.4,0.5-1.1,1-2.1,1c-1.4,0-2.1-1-2.1-1.9c0-1.6,1.5-2.5,4.1-2.5V369
			c0-0.6-0.2-1.6-1.5-1.6c-0.6,0-1.3,0.2-1.8,0.5l-0.3-0.8c0.6-0.4,1.4-0.6,2.2-0.6c2.1,0,2.6,1.4,2.6,2.8v2.5c0,0.6,0,1.2,0.1,1.6
			H381.9z M381.7,370c-1.3,0-2.9,0.2-2.9,1.5c0,0.8,0.5,1.2,1.2,1.2c0.9,0,1.4-0.6,1.6-1.1c0-0.1,0.1-0.3,0.1-0.4V370z"/>
		<path class="st1" d="M384.7,372.2c0.4,0.2,1,0.5,1.6,0.5c0.9,0,1.3-0.4,1.3-1c0-0.6-0.4-0.9-1.3-1.2c-1.2-0.4-1.8-1.1-1.8-1.9
			c0-1.1,0.9-2,2.3-2c0.7,0,1.3,0.2,1.7,0.4l-0.3,0.9c-0.3-0.2-0.8-0.4-1.4-0.4c-0.7,0-1.1,0.4-1.1,0.9c0,0.6,0.4,0.8,1.3,1.1
			c1.2,0.4,1.8,1,1.8,2c0,1.2-0.9,2-2.5,2c-0.7,0-1.4-0.2-1.9-0.5L384.7,372.2z"/>
		<path class="st1" d="M390.4,363.5h1.2v4.2h0c0.2-0.4,0.5-0.7,0.9-0.9c0.4-0.2,0.8-0.4,1.3-0.4c0.9,0,2.4,0.6,2.4,2.9v4H395v-3.9
			c0-1.1-0.4-2-1.6-2c-0.8,0-1.4,0.6-1.7,1.2c-0.1,0.2-0.1,0.4-0.1,0.6v4.1h-1.2V363.5z"/>
		<path class="st1" d="M399.6,364.8c0,0.4-0.3,0.8-0.8,0.8c-0.4,0-0.7-0.3-0.7-0.8c0-0.4,0.3-0.8,0.8-0.8
			C399.3,364,399.6,364.3,399.6,364.8z M398.2,373.4v-6.8h1.2v6.8H398.2z"/>
		<path class="st1" d="M402.2,370.3c0,1.7,1.1,2.4,2.3,2.4c0.9,0,1.4-0.2,1.9-0.3l0.2,0.9c-0.4,0.2-1.2,0.4-2.3,0.4
			c-2.1,0-3.3-1.4-3.3-3.4s1.2-3.7,3.2-3.7c2.2,0,2.8,1.9,2.8,3.2c0,0.3,0,0.4,0,0.6H402.2z M405.8,369.4c0-0.8-0.3-2-1.7-2
			c-1.2,0-1.8,1.1-1.9,2H405.8z"/>
		<path class="st1" d="M408.5,368.8c0-0.8,0-1.5-0.1-2.1h1.1l0,1.3h0.1c0.3-0.9,1.1-1.5,1.9-1.5c0.1,0,0.2,0,0.4,0v1.2
			c-0.1,0-0.3,0-0.4,0c-0.9,0-1.5,0.7-1.7,1.6c0,0.2-0.1,0.4-0.1,0.6v3.6h-1.2V368.8z"/>
	</g>
	<g>
		<path class="st1" d="M566.4,364.1c0.7-0.1,1.6-0.2,2.6-0.2c1.8,0,3,0.4,3.8,1.2c0.8,0.8,1.3,1.9,1.3,3.4c0,1.5-0.5,2.8-1.4,3.7
			c-0.9,0.9-2.3,1.4-4.2,1.4c-0.9,0-1.6,0-2.2-0.1V364.1z M567.6,372.5c0.3,0.1,0.8,0.1,1.2,0.1c2.6,0,4-1.5,4-4
			c0-2.2-1.2-3.6-3.8-3.6c-0.6,0-1.1,0.1-1.4,0.1V372.5z"/>
		<path class="st1" d="M581.8,370c0,2.5-1.7,3.6-3.4,3.6c-1.8,0-3.3-1.3-3.3-3.5c0-2.3,1.5-3.6,3.4-3.6
			C580.5,366.5,581.8,367.9,581.8,370z M576.4,370.1c0,1.5,0.9,2.6,2.1,2.6c1.2,0,2.1-1.1,2.1-2.6c0-1.1-0.6-2.6-2-2.6
			C577.1,367.4,576.4,368.8,576.4,370.1z"/>
		<path class="st1" d="M589.5,370c0,2.5-1.7,3.6-3.4,3.6c-1.8,0-3.3-1.3-3.3-3.5c0-2.3,1.5-3.6,3.4-3.6
			C588.2,366.5,589.5,367.9,589.5,370z M584.1,370.1c0,1.5,0.9,2.6,2.1,2.6c1.2,0,2.1-1.1,2.1-2.6c0-1.1-0.6-2.6-2-2.6
			C584.8,367.4,584.1,368.8,584.1,370.1z"/>
		<path class="st1" d="M591.1,368.8c0-0.8,0-1.5-0.1-2.1h1.1l0,1.3h0.1c0.3-0.9,1.1-1.5,1.9-1.5c0.1,0,0.2,0,0.4,0v1.2
			c-0.1,0-0.3,0-0.4,0c-0.9,0-1.5,0.7-1.7,1.6c0,0.2-0.1,0.4-0.1,0.6v3.6h-1.2V368.8z"/>
	</g>
	<g>
		<rect x="72.3" y="133.7" class="st3" width="38.7" height="38.7"/>
		<path class="st1" d="M111.5,172.8H71.8v-39.7h39.7V172.8z M72.8,171.8h37.7v-37.7H72.8V171.8z"/>
	</g>
	<g>
		<rect x="6.2" y="199.3" class="st3" width="38.7" height="38.7"/>
		<path class="st1" d="M45.3,238.5H5.7v-39.7h39.7V238.5z M6.7,237.5h37.7v-37.7H6.7V237.5z"/>
	</g>
	<g>
		<rect x="6.2" y="133.7" class="st3" width="38.7" height="38.7"/>
		<path class="st1" d="M45.3,172.8H5.7v-39.7h39.7V172.8z M6.7,171.8h37.7v-37.7H6.7V171.8z"/>
	</g>
	<g>
		<rect x="7" y="263.5" class="st3" width="38.7" height="38.7"/>
		<path class="st1" d="M46.1,302.7H6.5V263h39.7V302.7z M7.5,301.7h37.7V264H7.5V301.7z"/>
	</g>
	<g>
		<rect x="151.5" y="297.6" class="st3" width="38.7" height="38.7"/>
		<path class="st1" d="M190.6,336.7H151v-39.7h39.7V336.7z M152,335.7h37.7v-37.7H152V335.7z"/>
	</g>
	<g>
		<rect x="218.2" y="304.8" class="st3" width="38.7" height="38.7"/>
		<path class="st1" d="M257.4,343.9h-39.7v-39.7h39.7V343.9z M218.7,342.9h37.7v-37.7h-37.7V342.9z"/>
	</g>
	<g>
		<rect x="218.2" y="364.8" class="st3" width="38.7" height="38.7"/>
		<path class="st1" d="M257.4,404h-39.7v-39.7h39.7V404z M218.7,403h37.7v-37.7h-37.7V403z"/>
	</g>
	<g>
		<rect x="71.7" y="67.4" class="st3" width="38.7" height="38.7"/>
		<path class="st1" d="M110.9,106.5H71.2V66.9h39.7V106.5z M72.2,105.5h37.7V67.9H72.2V105.5z"/>
	</g>
	<g>
		<rect x="110.6" y="59.1" class="st1" width="1" height="192.4"/>
	</g>
	<g>
		<path class="st1" d="M87.5,81.7L87.5,81.7l-1.7,0.9l-0.3-0.9l2.1-1.1h1.1v9.1h-1.3V81.7z"/>
		<path class="st1" d="M95.1,81.7L95.1,81.7l-1.7,0.9l-0.3-0.9l2.1-1.1h1.1v9.1h-1.3V81.7z"/>
	</g>
	<g>
		<path class="st1" d="M23.1,156.2v-0.8l1-0.9c2.5-2.2,3.6-3.4,3.6-4.8c0-0.9-0.5-1.8-1.9-1.8c-0.9,0-1.6,0.4-2,0.8l-0.4-0.9
			c0.7-0.5,1.6-0.9,2.7-0.9c2.1,0,3,1.3,3,2.6c0,1.7-1.3,3-3.3,4.9l-0.8,0.7v0h4.3v1H23.1z"/>
	</g>
	<g>
		<path class="st1" d="M87.5,148.2L87.5,148.2l-1.7,0.9l-0.3-0.9l2.1-1.1h1.1v9.1h-1.3V148.2z"/>
		<path class="st1" d="M98.7,151.5c0,3.1-1.2,4.8-3.4,4.8c-1.9,0-3.2-1.7-3.2-4.7c0-3.1,1.4-4.7,3.4-4.7
			C97.5,146.9,98.7,148.6,98.7,151.5z M93.5,151.7c0,2.4,0.8,3.7,2,3.7c1.3,0,2-1.5,2-3.8c0-2.2-0.6-3.7-2-3.7
			C94.3,147.9,93.5,149.2,93.5,151.7z"/>
	</g>
	<g>
		<path class="st1" d="M22.7,220.8c0.4,0.2,1.2,0.6,2.1,0.6c1.7,0,2.2-1,2.2-1.8c0-1.3-1.2-1.8-2.5-1.8h-0.7v-0.9h0.7
			c0.9,0,2.2-0.5,2.2-1.5c0-0.7-0.5-1.4-1.7-1.4c-0.8,0-1.5,0.3-1.9,0.6l-0.3-0.9c0.5-0.4,1.5-0.7,2.5-0.7c1.9,0,2.8,1.1,2.8,2.2
			c0,0.9-0.6,1.7-1.8,2.1v0c1.2,0.2,2.2,1.1,2.2,2.3c0,1.5-1.2,2.7-3.5,2.7c-1.1,0-2-0.3-2.5-0.6L22.7,220.8z"/>
	</g>
	<g>
		<path class="st1" d="M27.2,286.1v-2.5h-4.5v-0.8L27,277h1.4v5.7h1.3v1h-1.3v2.5H27.2z M27.2,282.7v-3c0-0.5,0-1,0-1.4h0
			c-0.3,0.5-0.5,0.9-0.8,1.3l-2.4,3.1v0H27.2z"/>
	</g>
	<g>
		<path class="st1" d="M168.4,318.6c0.3,0,0.6,0,1.1,0c0.8-0.1,1.5-0.4,2-0.9c0.6-0.5,1.1-1.3,1.3-2.4h0c-0.5,0.6-1.3,1-2.3,1
			c-1.7,0-2.8-1.2-2.8-2.8c0-1.7,1.3-3.2,3.3-3.2c2,0,3.2,1.5,3.2,3.8c0,2-0.7,3.4-1.7,4.3c-0.7,0.7-1.8,1.1-2.8,1.2
			c-0.5,0.1-0.9,0.1-1.2,0.1V318.6z M168.9,313.3c0,1.1,0.7,1.9,1.9,1.9c0.9,0,1.6-0.4,1.9-1c0.1-0.1,0.1-0.3,0.1-0.4
			c0-1.6-0.6-2.7-2-2.7C169.7,311.1,168.9,312.1,168.9,313.3z"/>
	</g>
	<g>
		<path class="st1" d="M234.3,326.3c0-1.1,0.7-2,1.9-2.4l0,0c-1.1-0.5-1.5-1.3-1.5-2c0-1.4,1.3-2.4,3-2.4c1.9,0,2.8,1.1,2.8,2.2
			c0,0.8-0.4,1.6-1.6,2.1v0c1.2,0.4,1.9,1.2,1.9,2.4c0,1.6-1.4,2.6-3.3,2.6C235.5,328.8,234.3,327.6,234.3,326.3z M239.5,326.2
			c0-1.1-0.8-1.6-2.1-2c-1.1,0.3-1.7,1-1.7,1.9c0,0.9,0.7,1.7,1.9,1.7C238.7,327.9,239.5,327.2,239.5,326.2z M235.9,321.7
			c0,0.9,0.7,1.4,1.8,1.7c0.8-0.3,1.5-0.8,1.5-1.7c0-0.7-0.5-1.5-1.6-1.5C236.5,320.2,235.9,320.9,235.9,321.7z"/>
	</g>
	<g>
		<path class="st1" d="M240.7,379.7v0.8l-4.2,8.3h-1.3l4.2-8.1v0h-4.7v-1H240.7z"/>
	</g>
	<g>
		<path class="st1" d="M57.4,358.7h-3.7l-0.4,2.3c0.2,0,0.4-0.1,0.8-0.1c0.7,0,1.5,0.2,2.1,0.5c0.8,0.4,1.4,1.2,1.4,2.3
			c0,1.8-1.5,3.1-3.6,3.1c-1.1,0-1.9-0.3-2.4-0.6l0.3-0.9c0.4,0.2,1.2,0.5,2.1,0.5c1.2,0,2.3-0.8,2.3-2c0-1.2-0.8-2-2.8-2
			c-0.5,0-1,0.1-1.3,0.1l0.6-4.4h4.6V358.7z"/>
	</g>
	<g>
		<path class="st1" d="M146.9,380.5c-0.3,0-0.6,0-1,0.1c-2,0.3-3.1,1.7-3.4,3.2h0c0.5-0.6,1.3-1.1,2.3-1.1c1.7,0,2.9,1.2,2.9,2.9
			c0,1.7-1.2,3.2-3.2,3.2c-2.1,0-3.4-1.5-3.4-3.9c0-1.8,0.7-3.2,1.6-4.1c0.8-0.7,1.9-1.2,3.1-1.3c0.4-0.1,0.7-0.1,0.9-0.1V380.5z
			 M146.5,385.8c0-1.3-0.8-2.1-2-2.1c-0.8,0-1.5,0.5-1.9,1.1c-0.1,0.1-0.1,0.3-0.1,0.5c0,1.5,0.8,2.6,2.1,2.6
			C145.7,388,146.5,387.1,146.5,385.8z"/>
	</g>
	<g>
		<path class="st1" d="M126.3,204.5L126.3,204.5l-1.7,0.9l-0.3-0.9l2.1-1.1h1.1v9.1h-1.3V204.5z"/>
		<path class="st1" d="M134,204.5L134,204.5l-1.7,0.9l-0.3-0.9l2.1-1.1h1.1v9.1H134V204.5z"/>
	</g>
	<g>
		<path class="st1" d="M126.3,140.2L126.3,140.2l-1.7,0.9l-0.3-0.9l2.1-1.1h1.1v9.1h-1.3V140.2z"/>
		<path class="st1" d="M137.5,143.5c0,3.1-1.2,4.8-3.4,4.8c-1.9,0-3.2-1.7-3.2-4.7c0-3.1,1.4-4.7,3.4-4.7
			C136.4,138.9,137.5,140.6,137.5,143.5z M132.3,143.6c0,2.4,0.8,3.7,2,3.7c1.3,0,2-1.5,2-3.8c0-2.2-0.6-3.7-2-3.7
			C133.1,139.8,132.3,141.1,132.3,143.6z"/>
	</g>
	<g>
		<path class="st1" d="M236.1,100.9h-3.7l-0.4,2.3c0.2,0,0.4-0.1,0.8-0.1c0.7,0,1.5,0.2,2.1,0.5c0.8,0.4,1.4,1.2,1.4,2.3
			c0,1.8-1.5,3.1-3.6,3.1c-1.1,0-1.9-0.3-2.4-0.6l0.3-0.9c0.4,0.2,1.2,0.5,2.1,0.5c1.2,0,2.3-0.8,2.3-2c0-1.2-0.8-2-2.8-2
			c-0.5,0-1,0.1-1.3,0.1l0.6-4.4h4.6V100.9z"/>
	</g>
	<g>
		<path class="st1" d="M206.5,156.5c-0.3,0-0.6,0-1,0.1c-2,0.3-3.1,1.7-3.4,3.2h0c0.5-0.6,1.3-1.1,2.3-1.1c1.7,0,2.9,1.2,2.9,2.9
			c0,1.7-1.2,3.2-3.2,3.2c-2.1,0-3.4-1.5-3.4-3.9c0-1.8,0.7-3.2,1.6-4.1c0.8-0.7,1.9-1.2,3.1-1.3c0.4-0.1,0.7-0.1,0.9-0.1V156.5z
			 M206.2,161.7c0-1.3-0.8-2.1-2-2.1c-0.8,0-1.5,0.5-1.9,1.1c-0.1,0.1-0.1,0.3-0.1,0.5c0,1.5,0.8,2.6,2.1,2.6
			C205.4,163.9,206.2,163,206.2,161.7z"/>
	</g>
	<g>
		<path class="st1" d="M201.5,219.9c0-1.1,0.7-2,1.9-2.4l0,0c-1.1-0.5-1.5-1.3-1.5-2c0-1.4,1.3-2.4,3-2.4c1.9,0,2.8,1.1,2.8,2.2
			c0,0.8-0.4,1.6-1.6,2.1v0c1.2,0.4,1.9,1.2,1.9,2.4c0,1.6-1.4,2.6-3.3,2.6C202.7,222.3,201.5,221.2,201.5,219.9z M206.7,219.8
			c0-1.1-0.8-1.6-2.1-2c-1.1,0.3-1.7,1-1.7,1.9c0,0.9,0.7,1.7,1.9,1.7C206,221.4,206.7,220.7,206.7,219.8z M203.1,215.2
			c0,0.9,0.7,1.4,1.8,1.7c0.8-0.3,1.5-0.8,1.5-1.7c0-0.7-0.5-1.5-1.6-1.5C203.7,213.8,203.1,214.5,203.1,215.2z"/>
	</g>
	<g>
		<path class="st1" d="M275.2,213.1v0.8l-4.2,8.3h-1.3l4.2-8.1v0h-4.7v-1H275.2z"/>
	</g>
	<g>
		<path class="st1" d="M296.4,148.1v-2.5h-4.5v-0.8l4.3-5.8h1.4v5.7h1.3v1h-1.3v2.5H296.4z M296.4,144.7v-3c0-0.5,0-1,0-1.4h0
			c-0.3,0.5-0.5,0.9-0.8,1.3l-2.4,3.1v0H296.4z"/>
	</g>
	<g>
		<path class="st1" d="M292.6,88.2c0.4,0.2,1.2,0.6,2.1,0.6c1.7,0,2.2-1,2.2-1.8c0-1.3-1.2-1.8-2.5-1.8h-0.7v-0.9h0.7
			c0.9,0,2.2-0.5,2.2-1.5c0-0.7-0.5-1.4-1.7-1.4c-0.8,0-1.5,0.3-1.9,0.6l-0.3-0.9c0.5-0.4,1.5-0.7,2.5-0.7c1.9,0,2.8,1.1,2.8,2.2
			c0,0.9-0.6,1.7-1.8,2.1v0c1.2,0.2,2.2,1.1,2.2,2.3c0,1.5-1.2,2.7-3.5,2.7c-1.1,0-2-0.3-2.5-0.6L292.6,88.2z"/>
	</g>
	<g>
		<path class="st1" d="M356.3,148.1v-0.8l1-0.9c2.5-2.2,3.6-3.4,3.6-4.8c0-0.9-0.5-1.8-1.9-1.8c-0.9,0-1.6,0.4-2,0.8l-0.4-0.9
			c0.7-0.5,1.6-0.9,2.7-0.9c2.1,0,3,1.3,3,2.6c0,1.7-1.3,3-3.3,4.9l-0.8,0.7v0h4.3v1H356.3z"/>
	</g>
	<g>
		<path class="st1" d="M351.6,219L351.6,219l-1.7,0.9l-0.3-0.9l2.1-1.1h1.1v9.1h-1.3V219z"/>
		<path class="st1" d="M362.8,222.3c0,3.1-1.2,4.8-3.4,4.8c-1.9,0-3.2-1.7-3.2-4.7c0-3.1,1.4-4.7,3.4-4.7
			C361.6,217.7,362.8,219.4,362.8,222.3z M357.5,222.4c0,2.4,0.8,3.7,2,3.7c1.3,0,2-1.5,2-3.8c0-2.2-0.6-3.7-2-3.7
			C358.4,218.6,357.5,220,357.5,222.4z"/>
	</g>
	<g>
		<path class="st1" d="M432.7,217.9v0.8l-4.2,8.3h-1.3l4.2-8.1v0h-4.7v-1H432.7z"/>
	</g>
	<g>
		<path class="st1" d="M426.3,145.8c0-1.1,0.7-2,1.9-2.4l0,0c-1.1-0.5-1.5-1.3-1.5-2c0-1.4,1.3-2.4,3-2.4c1.9,0,2.8,1.1,2.8,2.2
			c0,0.8-0.4,1.6-1.6,2.1v0c1.2,0.4,1.9,1.2,1.9,2.4c0,1.6-1.4,2.6-3.3,2.6C427.5,148.3,426.3,147.1,426.3,145.8z M431.5,145.8
			c0-1.1-0.8-1.6-2.1-2c-1.1,0.3-1.7,1-1.7,1.9c0,0.9,0.7,1.7,1.9,1.7C430.7,147.4,431.5,146.7,431.5,145.8z M427.9,141.2
			c0,0.9,0.7,1.4,1.8,1.7c0.8-0.3,1.5-0.8,1.5-1.7c0-0.7-0.5-1.5-1.6-1.5C428.5,139.7,427.9,140.4,427.9,141.2z"/>
	</g>
	<g>
		<path class="st1" d="M427.2,88.8c0.3,0,0.6,0,1.1,0c0.8-0.1,1.5-0.4,2-0.9c0.6-0.5,1.1-1.3,1.3-2.4h0c-0.5,0.6-1.3,1-2.3,1
			c-1.7,0-2.8-1.2-2.8-2.8c0-1.7,1.3-3.2,3.3-3.2c2,0,3.2,1.5,3.2,3.8c0,2-0.7,3.4-1.7,4.3c-0.7,0.7-1.8,1.1-2.8,1.2
			c-0.5,0.1-0.9,0.1-1.2,0.1V88.8z M427.6,83.5c0,1.1,0.7,1.9,1.9,1.9c0.9,0,1.6-0.4,1.9-1c0.1-0.1,0.1-0.3,0.1-0.4
			c0-1.6-0.6-2.7-2-2.7C428.4,81.3,427.6,82.2,427.6,83.5z"/>
	</g>
	<g>
		<path class="st1" d="M470.6,108.8c-0.3,0-0.6,0-1,0.1c-2,0.3-3.1,1.7-3.4,3.2h0c0.5-0.6,1.3-1.1,2.3-1.1c1.7,0,2.9,1.2,2.9,2.9
			c0,1.7-1.2,3.2-3.2,3.2c-2.1,0-3.4-1.5-3.4-3.9c0-1.8,0.7-3.2,1.6-4.1c0.8-0.7,1.9-1.2,3.1-1.3c0.4-0.1,0.7-0.1,0.9-0.1V108.8z
			 M470.2,114c0-1.3-0.8-2.1-2-2.1c-0.8,0-1.5,0.5-1.9,1.1c-0.1,0.1-0.1,0.3-0.1,0.5c0,1.5,0.8,2.6,2.1,2.6
			C469.5,116.2,470.2,115.3,470.2,114z"/>
	</g>
	<g>
		<path class="st1" d="M470.8,188.8h-3.7l-0.4,2.3c0.2,0,0.4-0.1,0.8-0.1c0.7,0,1.5,0.2,2.1,0.5c0.8,0.4,1.4,1.2,1.4,2.3
			c0,1.8-1.5,3.1-3.6,3.1c-1.1,0-1.9-0.3-2.4-0.6l0.3-0.9c0.4,0.2,1.2,0.5,2.1,0.5c1.2,0,2.3-0.8,2.3-2c0-1.2-0.8-2-2.8-2
			c-0.5,0-1,0.1-1.3,0.1l0.6-4.4h4.6V188.8z"/>
	</g>
	<g>
		<path class="st1" d="M557.7,82.1v-2.5h-4.5v-0.8l4.3-5.8h1.4v5.7h1.3v1h-1.3v2.5H557.7z M557.7,78.7v-3c0-0.5,0-1,0-1.4h0
			c-0.3,0.5-0.5,0.9-0.8,1.3l-2.4,3.1v0H557.7z"/>
	</g>
	<g>
		<path class="st1" d="M554,144c0.4,0.2,1.2,0.6,2.1,0.6c1.7,0,2.2-1,2.2-1.8c0-1.3-1.2-1.8-2.5-1.8h-0.7V140h0.7
			c0.9,0,2.2-0.5,2.2-1.5c0-0.7-0.5-1.4-1.7-1.4c-0.8,0-1.5,0.3-1.9,0.6l-0.3-0.9c0.5-0.4,1.5-0.7,2.5-0.7c1.9,0,2.8,1.1,2.8,2.2
			c0,0.9-0.6,1.7-1.8,2.1v0c1.2,0.2,2.2,1.1,2.2,2.3c0,1.5-1.2,2.7-3.5,2.7c-1.1,0-2-0.3-2.5-0.6L554,144z"/>
	</g>
	<g>
		<path class="st1" d="M553.4,206.2v-0.8l1-0.9c2.5-2.2,3.6-3.4,3.6-4.8c0-0.9-0.5-1.8-1.9-1.8c-0.9,0-1.6,0.4-2,0.8l-0.4-0.9
			c0.7-0.5,1.6-0.9,2.7-0.9c2.1,0,3,1.3,3,2.6c0,1.7-1.3,3-3.3,4.9l-0.8,0.7v0h4.3v1H553.4z"/>
	</g>
	<g>
		<path class="st1" d="M556.5,267.3L556.5,267.3l-1.7,0.9l-0.3-0.9l2.1-1.1h1.1v9.1h-1.3V267.3z"/>
	</g>
	<g>
		<path class="st1" d="M162.3,88.8c0.3,0,0.6,0,1.1,0c0.8-0.1,1.5-0.4,2-0.9c0.6-0.5,1.1-1.3,1.3-2.4h0c-0.5,0.6-1.3,1-2.3,1
			c-1.7,0-2.8-1.2-2.8-2.8c0-1.7,1.3-3.2,3.3-3.2c2,0,3.2,1.5,3.2,3.8c0,2-0.7,3.4-1.7,4.3c-0.7,0.7-1.8,1.1-2.8,1.2
			c-0.5,0.1-0.9,0.1-1.2,0.1V88.8z M162.8,83.5c0,1.1,0.7,1.9,1.9,1.9c0.9,0,1.6-0.4,1.9-1c0.1-0.1,0.1-0.3,0.1-0.4
			c0-1.6-0.6-2.7-2-2.7C163.6,81.3,162.8,82.2,162.8,83.5z"/>
	</g>
	<g>
		<path class="st1" d="M26,81.7L26,81.7l-1.7,0.9L24,81.6l2.1-1.1h1.1v9.1H26V81.7z"/>
	</g>
	<g>
		<path class="st1" d="M359.1,81.7L359.1,81.7l-1.7,0.9l-0.3-0.9l2.1-1.1h1.1v9.1h-1.3V81.7z"/>
	</g>
</g>
</svg>
